<svg width="217" height="50" viewBox="0 0 217 50" fill="none" xmlns="http://www.w3.org/2000/svg">
<path d="M18.7766 15.2776C13.0519 9.70759 16.9953 0 24.9826 0C32.9699 0 36.9132 9.70759 31.1885 15.2776L24.9826 21.3158L18.7766 15.2776Z" fill="#F3F3F3"/>
<path d="M18.8128 34.7224C13.0881 40.2924 17.0314 50 25.0187 50C33.006 50 36.9493 40.2924 31.2246 34.7224L25.0187 28.6842L18.8128 34.7224Z" fill="#F3F3F3"/>
<path d="M15.2776 31.2236C9.70759 36.9483 0 33.005 0 25.0177C0 17.0304 9.70759 13.087 15.2776 18.8117L21.3158 25.0177L15.2776 31.2236Z" fill="#F3F3F3"/>
<path d="M34.7224 31.1877C40.2924 36.9124 50 32.9691 50 24.9818C50 16.9945 40.2924 13.0511 34.7224 18.7758L28.6842 24.9818L34.7224 31.1877Z" fill="#F3F3F3"/>
<path d="M72.2205 28.825V16.25H76.0205V33.75H70.5455L62.8705 21.2H62.4455V33.75H58.6455V16.25H63.7705V16.275H64.1205L71.7705 28.825H72.2205Z" fill="white"/>
<path d="M89.8455 19.725H93.6455V33.75H89.8455V31.7001H89.6705C88.7705 32.9501 87.4955 33.75 84.9705 33.75C79.0455 33.75 78.8955 28.8 78.8955 26.75V19.725H82.6705V26.75C82.6705 27.85 82.4205 30.5 86.0705 30.5C89.3455 30.5 89.8455 28.4001 89.8455 26.5V19.725Z" fill="white"/>
<path d="M101.696 22.975V27.95V28.25C101.696 30.275 102.596 30 106.246 29.8V33.5C106.246 33.5 105.496 33.75 101.696 33.75C97.8705 33.75 97.8705 30.6251 97.8705 28.6V22.975H96.0205V19.775H97.8705V15.725H101.696V19.775H106.246V22.975H101.696Z" fill="white"/>
<path d="M116.949 19.725C117.949 19.725 118.774 19.95 119.424 20.1L118.824 23.675C118.474 23.575 117.499 23.375 116.299 23.375C113.474 23.375 112.649 25.575 112.649 27.475V33.75H108.849V19.725H112.649V21.8H112.874C113.674 20.45 114.524 19.725 116.949 19.725Z" fill="white"/>
<path d="M125.232 33.75H121.457V19.825H125.232V33.75ZM125.232 18.825H121.457V15.425H125.232V18.825Z" fill="white"/>
<path d="M133.515 22.975V27.95V28.25C133.515 30.275 134.415 30 138.065 29.8V33.5C138.065 33.5 137.315 33.75 133.515 33.75C129.69 33.75 129.69 30.6251 129.69 28.6V22.975H127.84V19.775H129.69V15.725H133.515V19.775H138.065V22.975H133.515Z" fill="white"/>
<path d="M144.37 33.75H140.595V19.825H144.37V33.75ZM144.37 18.825H140.595V15.425H144.37V18.825Z" fill="white"/>
<path d="M154.778 19.475C159.053 19.475 162.603 21.75 162.603 26.625C162.603 31.55 159.053 33.75 154.778 33.75C150.528 33.75 146.978 31.475 146.978 26.625C146.978 21.8 150.528 19.475 154.778 19.475ZM154.778 30.3C157.178 30.3 158.878 29.15 158.878 26.625C158.878 24.025 157.178 22.95 154.778 22.95C152.403 22.95 150.703 23.975 150.703 26.625C150.703 29.25 152.403 30.3 154.778 30.3Z" fill="white"/>
<path d="M173.827 19.725C179.752 19.725 179.902 24.7 179.902 26.75V33.75H176.127V26.75C176.127 25.65 176.352 23 172.727 23C169.427 23 168.952 25.1 168.952 27V33.75H165.152V19.725H168.952V21.8H169.127C170.027 20.55 171.302 19.725 173.827 19.725Z" fill="white"/>
<path d="M186.541 33.75H182.766V19.825H186.541V33.75ZM186.541 18.825H182.766V15.425H186.541V18.825Z" fill="white"/>
<path d="M196.354 25.25C199.529 25.725 203.129 26.2751 203.129 29.6C203.129 33.0751 200.629 33.75 196.329 33.75C193.154 33.75 190.979 33.1751 189.854 32.0501C188.879 31.0751 188.879 29.9001 188.904 29.175V28.9H192.804V29.025C192.804 30.225 193.704 30.775 196.229 30.775C197.754 30.775 199.204 30.5751 199.204 29.6501C199.204 28.6 197.854 28.4001 196.329 28.225C196.129 28.2 195.929 28.175 195.729 28.15C191.704 27.625 189.204 26.725 189.204 23.925C189.204 21.975 190.329 19.65 195.729 19.65C201.529 19.65 202.754 22.225 202.754 24.375V24.5H198.879V24.375C198.879 23.275 197.929 22.675 195.729 22.675C193.604 22.675 193.154 23.45 193.154 23.875C193.154 24.5 193.579 24.85 196.029 25.225L196.354 25.25Z" fill="white"/>
<path d="M210.557 22.975V27.95V28.25C210.557 30.275 211.457 30 215.107 29.8V33.5C215.107 33.5 214.357 33.75 210.557 33.75C206.732 33.75 206.732 30.6251 206.732 28.6V22.975H204.882V19.775H206.732V15.725H210.557V19.775H215.107V22.975H210.557Z" fill="white"/>
</svg>
