<svg width="215" height="50" viewBox="0 0 215 50" fill="none" xmlns="http://www.w3.org/2000/svg">
<path d="M18.7549 15.2776C13.0369 9.70759 16.9756 0 24.9537 0C32.9318 0 36.8706 9.70759 31.1525 15.2776L24.9537 21.3158L18.7549 15.2776Z" fill="#008080"/>
<path d="M18.7911 34.7224C13.073 40.2924 17.0118 50 24.9898 50C32.9679 50 36.9067 40.2924 31.1886 34.7224L24.9898 28.6842L18.7911 34.7224Z" fill="#008080"/>
<path d="M15.2599 31.2236C9.69637 36.9483 0 33.005 0 25.0177C0 17.0304 9.69637 13.087 15.2599 18.8117L21.2911 25.0177L15.2599 31.2236Z" fill="#008080"/>
<path d="M34.6825 31.1877C40.246 36.9124 49.9424 32.9691 49.9424 24.9818C49.9424 16.9945 40.246 13.0511 34.6825 18.7758L28.6512 24.9818L34.6825 31.1877Z" fill="#008080"/>
<path d="M72.1374 28.825V16.25H75.933V33.75H70.4644L62.7982 21.2H62.3737V33.75H58.5781V16.25H63.6972V16.275H64.0468L71.688 28.825H72.1374Z" fill="#008080"/>
<path d="M89.7421 19.725H93.5377V33.75H89.7421V31.7H89.5673C88.6683 32.95 87.3948 33.75 84.8727 33.75C78.9545 33.75 78.8047 28.8 78.8047 26.75V19.725H82.5753V26.75C82.5753 27.85 82.3256 30.5 85.9714 30.5C89.2426 30.5 89.7421 28.4 89.7421 26.5V19.725Z" fill="#008080"/>
<path d="M101.578 22.975V27.95V28.25C101.578 30.275 102.477 30.0001 106.123 29.8001V33.5001C106.123 33.5001 105.374 33.75 101.578 33.75C97.7578 33.75 97.7578 30.6251 97.7578 28.6V22.975H95.9099V19.775H97.7578V15.725H101.578V19.775H106.123V22.975H101.578Z" fill="#008080"/>
<path d="M116.814 19.725C117.813 19.725 118.637 19.95 119.286 20.1L118.687 23.675C118.337 23.575 117.363 23.375 116.165 23.375C113.343 23.375 112.519 25.575 112.519 27.475V33.75H108.723V19.725H112.519V21.8H112.744C113.543 20.45 114.392 19.725 116.814 19.725Z" fill="#008080"/>
<path d="M125.088 33.75H121.317V19.825H125.088V33.75ZM125.088 18.825H121.317V15.425H125.088V18.825Z" fill="#008080"/>
<path d="M133.361 22.975V27.95V28.25C133.361 30.275 134.26 30.0001 137.906 29.8001V33.5001C137.906 33.5001 137.157 33.75 133.361 33.75C129.54 33.75 129.54 30.6251 129.54 28.6V22.975H127.692V19.775H129.54V15.725H133.361V19.775H137.906V22.975H133.361Z" fill="#008080"/>
<path d="M144.203 33.75H140.433V19.825H144.203V33.75ZM144.203 18.825H140.433V15.425H144.203V18.825Z" fill="#008080"/>
<path d="M154.599 19.475C158.869 19.475 162.415 21.75 162.415 26.625C162.415 31.55 158.869 33.75 154.599 33.75C150.354 33.75 146.808 31.475 146.808 26.625C146.808 21.8 150.354 19.475 154.599 19.475ZM154.599 30.3C156.996 30.3 158.694 29.15 158.694 26.625C158.694 24.025 156.996 22.95 154.599 22.95C152.227 22.95 150.529 23.975 150.529 26.625C150.529 29.25 152.227 30.3 154.599 30.3Z" fill="#008080"/>
<path d="M173.627 19.725C179.545 19.725 179.695 24.7 179.695 26.75V33.75H175.924V26.75C175.924 25.65 176.149 23 172.528 23C169.232 23 168.757 25.1 168.757 27V33.75H164.962V19.725H168.757V21.8H168.932C169.831 20.55 171.105 19.725 173.627 19.725Z" fill="#008080"/>
<path d="M186.325 33.75H182.555V19.825H186.325V33.75ZM186.325 18.825H182.555V15.425H186.325V18.825Z" fill="#008080"/>
<path d="M196.128 25.25C199.299 25.725 202.895 26.275 202.895 29.6001C202.895 33.0751 200.398 33.75 196.103 33.75C192.931 33.75 190.759 33.1751 189.635 32.0501C188.661 31.0751 188.661 29.9 188.686 29.1751V28.9H192.582V29.025C192.582 30.225 193.481 30.775 196.003 30.775C197.526 30.775 198.974 30.5751 198.974 29.6501C198.974 28.6 197.626 28.4 196.103 28.225C195.903 28.2 195.703 28.175 195.503 28.15C191.483 27.625 188.986 26.725 188.986 23.925C188.986 21.975 190.11 19.65 195.503 19.65C201.297 19.65 202.52 22.225 202.52 24.375V24.5H198.65V24.375C198.65 23.275 197.701 22.675 195.503 22.675C193.381 22.675 192.931 23.45 192.931 23.875C192.931 24.5 193.356 24.85 195.803 25.225L196.128 25.25Z" fill="#008080"/>
<path d="M210.314 22.975V27.95V28.25C210.314 30.275 211.213 30.0001 214.859 29.8001V33.5001C214.859 33.5001 214.109 33.75 210.314 33.75C206.493 33.75 206.493 30.6251 206.493 28.6V22.975H204.645V19.775H206.493V15.725H210.314V19.775H214.859V22.975H210.314Z" fill="#008080"/>
</svg>
