<svg width="34" height="26" viewBox="0 0 34 26" fill="none" xmlns="http://www.w3.org/2000/svg">
<path d="M0.196045 25.9412V18.5359C0.196045 16.4062 0.584836 14.1919 1.36242 11.8928C2.16356 9.5696 3.24746 7.37946 4.61412 5.32243C6.00434 3.2412 7.5595 1.48667 9.27961 0.0588379L15.2175 4.01561C13.8273 6.16944 12.6609 8.42008 11.7184 10.7675C10.7994 13.0908 10.3517 15.656 10.3753 18.4633V25.9412H0.196045ZM18.1158 25.9412V18.5359C18.1158 16.4062 18.5046 14.1919 19.2821 11.8928C20.0833 9.5696 21.1672 7.37946 22.5338 5.32243C23.9241 3.2412 25.4792 1.48667 27.1993 0.0588379L33.1372 4.01561C31.747 6.16944 30.5806 8.42008 29.6381 10.7675C28.7191 13.0908 28.2714 15.656 28.295 18.4633V25.9412H18.1158Z" fill="#008080"/>
</svg>
