<svg width="14" height="18" viewBox="0 0 14 18" fill="none" xmlns="http://www.w3.org/2000/svg">
<path fill-rule="evenodd" clip-rule="evenodd" d="M6.99995 17.5C6.29579 17.5 5.72495 16.9292 5.72495 16.225L5.72495 4.94054L2.39401 8.60871C1.90595 9.1163 1.09882 9.13212 0.591239 8.64406C0.0836555 8.156 0.0678288 7.34887 0.55589 6.84129L6.08089 0.891286C6.32127 0.641287 6.65313 0.5 6.99995 0.5C7.34678 0.5 7.67863 0.641287 7.91901 0.891286L13.444 6.84129C13.9321 7.34887 13.9163 8.156 13.4087 8.64406C12.9011 9.13212 12.094 9.1163 11.6059 8.60871L8.27495 4.94054V16.225C8.27495 16.9292 7.70412 17.5 6.99995 17.5Z" fill="#F3F3F3"/>
</svg>
