<svg width="39" height="37" viewBox="0 0 39 37" fill="none" xmlns="http://www.w3.org/2000/svg">
<path d="M9.56101 1.70072C8.7407 3.59245 8.35566 5.4842 8.35566 7.32571C8.35566 13.4362 12.6748 18.4418 19.4047 18.4418C26.1347 18.4418 30.4539 13.4362 30.4539 7.32571C30.4539 5.4842 30.0689 3.59245 29.2653 1.70072C28.897 0.897147 27.9427 0.77996 27.3066 1.43286L23.5566 5.24983L20.359 1.11478C19.84 0.445138 18.9694 0.445138 18.4673 1.11478L15.2697 5.24983L11.503 1.43286C10.8668 0.77996 9.91257 0.897147 9.56101 1.70072ZM18.0654 35.4843C18.0654 36.2375 18.6514 36.7398 19.4047 36.7398C28.0599 36.7398 36.0119 31.3994 38.6236 23.8994C38.9919 22.8781 38.6067 22.2253 37.5186 22.2253C28.9639 22.2253 22.8031 27.2475 20.3256 33.5924L20.7609 34.1617V16.751H18.0654V35.4843ZM15.772 29.0891C12.6246 25.0043 7.58556 22.2253 1.2407 22.2253C0.152528 22.2253 -0.232516 22.8781 0.135787 23.8994C2.37909 30.395 8.60677 35.2833 15.9059 36.4384C15.8221 36.1538 15.772 35.819 15.772 35.4843V29.0891Z" fill="#F3F3F3"/>
</svg>
