<svg width="23" height="21" viewBox="0 0 23 21" fill="none" xmlns="http://www.w3.org/2000/svg">
<path d="M21.3502 5.06873L13.5439 1.49651C12.7306 1.12971 12.0688 0.954286 11.4069 0.970235C10.7531 0.954286 10.0912 1.12971 9.26995 1.49651L1.47162 5.06873C0.961298 5.30001 0.714111 5.70663 0.714111 6.11332C0.714111 6.51995 0.961298 6.91868 1.47162 7.15791L4.75681 8.65697L9.80422 6.28874C9.75639 6.23294 9.7404 6.16912 9.7404 6.11332C9.7404 5.61096 10.5856 5.22822 11.4388 5.22822C12.3 5.22822 13.1293 5.61096 13.1293 6.11332C13.1293 6.6316 12.3 7.02231 11.4388 7.02231C11.1757 7.02231 10.9126 6.98243 10.6813 6.91868L5.86516 9.17525L9.26995 10.7381C10.0912 11.1128 10.7531 11.2723 11.4069 11.2644C12.0688 11.2723 12.7306 11.1128 13.5439 10.7381L21.3502 7.15791C21.8605 6.91868 22.1077 6.51995 22.1077 6.11332C22.1077 5.70663 21.8605 5.30001 21.3502 5.06873ZM5.83327 10.3554V15.2034C7.17286 16.0168 9.08658 16.5111 11.4069 16.5111C16.1115 16.5111 19.1415 14.4937 19.1415 12.1096V9.36658L13.9984 11.7189C13.0654 12.1495 12.2203 12.3648 11.4069 12.3568C10.6016 12.3648 9.74836 12.1495 8.81543 11.7189L5.83327 10.3554ZM3.68036 9.36658V12.1096C3.68036 12.8033 4.07904 13.6644 4.79668 14.3981V9.88494L3.68036 9.36658ZM4.79668 17.0533H5.83327V15.2034C5.43458 14.9642 5.08374 14.6931 4.79668 14.3981V17.0533ZM4.16675 17.1092V19.2063C4.16675 19.8362 4.57342 20.2428 5.20335 20.2428H5.41863C6.04856 20.2428 6.45522 19.8362 6.45522 19.2063V17.1092C6.45522 16.4792 6.04856 16.0725 5.41863 16.0725H5.20335C4.57342 16.0725 4.16675 16.4792 4.16675 17.1092Z" fill="#F3F3F3"/>
</svg>
