<svg width="18" height="23" viewBox="0 0 18 23" fill="none" xmlns="http://www.w3.org/2000/svg">
<path d="M3.54279 22.3928H14.2102C16.2794 22.3928 17.324 21.3381 17.324 19.2488V4.01108C17.324 1.91174 16.2894 0.857056 14.2102 0.857056H11.6589C11.3173 0.857056 11.0863 1.09813 11.0863 1.45973C11.0863 1.50996 11.0863 1.56018 11.0863 1.60036C11.0863 2.90616 10.2024 3.68965 8.8765 3.68965C7.5506 3.68965 6.66668 2.90616 6.66668 1.60036C6.66668 1.56018 6.66668 1.50996 6.66668 1.45973C6.66668 1.09813 6.43565 0.857056 6.09414 0.857056H3.54279C1.46355 0.857056 0.428955 1.91174 0.428955 4.01108V19.2488C0.428955 21.3381 1.4736 22.3928 3.54279 22.3928ZM5.06958 8.34031C4.70798 8.34031 4.44681 8.06911 4.44681 7.7075C4.44681 7.36598 4.70798 7.09478 5.06958 7.09478H12.6935C13.0451 7.09478 13.3062 7.36598 13.3062 7.7075C13.3062 8.06911 13.0451 8.34031 12.6935 8.34031H5.06958ZM5.06958 11.9061C4.70798 11.9061 4.44681 11.6349 4.44681 11.2935C4.44681 10.9419 4.70798 10.6707 5.06958 10.6707H8.6756C9.03724 10.6707 9.29841 10.9419 9.29841 11.2935C9.29841 11.6349 9.03724 11.9061 8.6756 11.9061H5.06958Z" fill="#F3F3F3"/>
</svg>
