<svg width="17" height="26" viewBox="0 0 17 26" fill="none" xmlns="http://www.w3.org/2000/svg">
<path d="M5.62243 25.3349H11.7597C15.2552 25.3349 16.983 23.567 16.9528 20.0313C16.9126 15.9934 16.8925 13.0603 16.7921 10.8606C16.5008 4.39183 14.6827 2.49339 8.69608 2.49339C2.70948 2.49339 0.881352 4.39183 0.590057 10.8606C0.48961 13.0603 0.469521 15.9934 0.429343 20.0313C0.399209 23.567 2.12689 25.3349 5.62243 25.3349ZM5.33113 21.3472C4.46729 21.3472 3.91484 20.7847 3.91484 19.941V14.7579C3.91484 13.9041 4.46729 13.3416 5.33113 13.3416H12.0611C12.9149 13.3416 13.4673 13.9041 13.4673 14.7579V19.941C13.4673 20.7847 12.9149 21.3472 12.0611 21.3472H5.33113ZM3.91484 17.2088H13.4673V16.0135H3.91484V17.2088ZM8.69608 0.142944C6.76751 0.142944 5.41148 1.44875 5.41148 3.22665H6.82778C6.82778 2.25232 7.59117 1.55924 8.69608 1.55924C9.79093 1.55924 10.5644 2.25232 10.5644 3.22665H11.9807C11.9807 1.44875 10.6146 0.142944 8.69608 0.142944Z" fill="#F3F3F3"/>
</svg>
